<?xml version="1.0"?>
<svg width="149" height="37" xmlns="http://www.w3.org/2000/svg" xmlns:svg="http://www.w3.org/2000/svg">
 <g class="layer">
  <title>Layer 1</title>
  <path d="m31.15,11.01l-0.02,-0.02c-0.01,-0.01 -0.01,-0.01 -0.01,-0.01l-13.62,-10.99l-13.62,10.99c0,0 0,0.01 0,0.01l-0.03,0.02c-2.08,1.69 -3.4,3.89 -3.76,6.26c-0.35,2.36 0.29,4.75 1.82,6.79c1.52,2.04 3.85,3.61 6.61,4.46c2.76,0.85 5.79,0.94 8.62,0.23c0.23,-0.06 0.49,-0.06 0.73,0c2.82,0.7 5.85,0.61 8.61,-0.23c2.76,-0.85 5.09,-2.42 6.61,-4.46c1.53,-2.04 2.17,-4.43 1.82,-6.79c-0.36,-2.37 -1.68,-4.57 -3.76,-6.26zm-22.43,7.25c-0.06,0.06 -0.12,0.11 -0.15,0.19c-0.04,0.07 -0.06,0.15 -0.06,0.22c0.03,1.94 0.71,3.84 1.97,5.49c0.03,0.03 0.04,0.08 0.04,0.12c-0.01,0.05 -0.03,0.09 -0.06,0.12c-0.04,0.03 -0.09,0.06 -0.14,0.06c-0.05,0.02 -0.11,0.01 -0.16,-0.01c-0.95,-0.32 -1.81,-0.79 -2.53,-1.37c-1.49,-1.2 -2.33,-2.83 -2.33,-4.53c0,-1.69 0.83,-3.32 2.32,-4.53l9.88,-7.97l9.88,7.97c1.49,1.2 2.32,2.84 2.32,4.53c0,1.7 -0.84,3.33 -2.32,4.53c-0.73,0.58 -1.59,1.05 -2.54,1.37c-0.05,0.02 -0.11,0.02 -0.16,0.01c-0.05,-0.01 -0.1,-0.03 -0.14,-0.06c-0.03,-0.03 -0.05,-0.07 -0.06,-0.12c0,-0.04 0.01,-0.09 0.04,-0.12c1.26,-1.65 1.94,-3.55 1.97,-5.49c0,-0.07 -0.02,-0.15 -0.06,-0.22c-0.03,-0.07 -0.09,-0.13 -0.15,-0.19l-4.68,-4c-0.04,-0.03 -0.1,-0.05 -0.16,-0.05c-0.06,0 -0.12,0.02 -0.17,0.05c-0.04,0.03 -0.08,0.07 -0.09,0.12c-0.01,0.05 0,0.1 0.03,0.15c1.82,2.65 0.26,6.45 -2.35,8.56l-0.01,0.01c-0.36,0.28 -0.84,0.44 -1.35,0.44c-0.51,0 -0.99,-0.16 -1.35,-0.44l-0.01,-0.01c-2.61,-2.11 -4.17,-5.91 -2.35,-8.56c0.03,-0.04 0.04,-0.1 0.03,-0.15c-0.01,-0.04 -0.04,-0.09 -0.09,-0.12c-0.05,-0.03 -0.11,-0.05 -0.17,-0.05c-0.06,0 -0.12,0.02 -0.16,0.05l-4.68,4z" fill="#F53838" id="svg_2" transform="matrix(1 0 0 1 0 0)"/>
  <text fill="#000000" font-family="Fantasy" font-size="25" font-weight="bold" id="svg_4" stroke-width="0" style="cursor: move;" text-anchor="middle" transform="matrix(1.05431 0 0 1 -4.06077 0)" x="80.67" xml:space="preserve" y="29.5">W W</text>
 </g>
</svg>